<svg xmlns="http://www.w3.org/2000/svg" viewBox="0 0 58 58">
  <defs>
    <style>
      .a {
        fill: #0080c5;
      }
    </style>
  </defs>
  <title>ST</title>
  <path class="a" d="M38.67,26.58a7.25,7.25,0,1,0-7.25-7.25A7.22,7.22,0,0,0,38.67,26.58Zm-19.34,0a7.25,7.25,0,1,0-7.25-7.25A7.23,7.23,0,0,0,19.33,26.58Zm0,4.84c-5.63,0-16.91,2.82-16.91,8.46v6H36.25v-6C36.25,34.24,25,31.42,19.33,31.42Zm19.34,0c-.7,0-1.5,0-2.35.12,2.81,2,4.76,4.76,4.76,8.34v6h14.5v-6C55.58,34.24,44.3,31.42,38.67,31.42Z"/>
</svg>
